<svg xmlns="http://www.w3.org/2000/svg" width="24" height="24"><path fill="#02B3E4" d="M5 5v14h6c.55 0 1 .45 1 1s-.45 1-1 1H4.88C3.8 21 3 20.08 3 19V5c0-1.08.8-2 1.88-2h12.24C18.2 3 19 3.92 19 5v5c0 .55-.45 1-1 1s-1-.45-1-1V5H5zm3 4c-.55 0-1-.45-1-1s.45-1 1-1h6c.55 0 1 .45 1 1s-.45 1-1 1H8zm0 4c-.55 0-1-.45-1-1s.45-1 1-1h4c.55 0 1 .45 1 1s-.45 1-1 1H8zm0 4c-.55 0-1-.45-1-1s.45-1 1-1h3c.55 0 1 .45 1 1s-.45 1-1 1H8zm6-2c0-1.1.9-2 2-2h4c1.1 0 2 .9 2 2v4c0 1.1-.9 2-2 2h-4c-1.1 0-2-.9-2-2v-4zm2 4h4v-4h-4v4z"/></svg>